<svg id="圖層_1" xmlns="http://www.w3.org/2000/svg" viewBox="0 0 301.5 116.5"><style>.st0{fill:#595757;}</style><path class="st0" d="M51.6 72v2.2H41.1V44c-.4.9-1 1.7-1.5 2.2v8.6h-6.2c3.6 3.3 6.9 4.6 6.9 4.6l-4.3 10s-2.9-2.5-5-7.6v12.4H20.5v-11c-1 3.5-3.3 6.6-5.9 8.6l-4.1-10.4c4.2-2.5 6.8-4.5 8.4-6.6h-7.3v-9.5h8.9v-2.9c-.8-.9-1.9-4.2-2.1-7-.6 3.9-2.4 7.6-4.3 8.8L10.7 35c1.8-2 2.8-4.5 3.4-6.6h-3.3v-9.2h9V15h10.5v4.2h10.1V28c3.4-6.4 4.9-12.8 4.9-12.8l10.1 1.9s-.7 3-2.3 7.4h2.5c1.7-5.7 2.1-9.1 2.1-9.1l9.7 2s-.4 2.2-2 7h3.9v9.2h-4.5v3.5h3.7v9.3h-3.7v3.5h3.7v9.2h-3.7v3.7h4.7V72H51.6zM23.3 28.4c-.1.7-.4 1.6-.6 2.4.6.7 1.1 1.4 2 2.2 1-1.4 1.7-3 2.2-4.5h-3.6zm1.4 9.5L23 41.3h3.3l-1.6-3.4zm12.9 1.9l-1.7 3.9c-1.5-1.5-3.6-4.8-4.2-8.9-.2 3.3-.9 5.7-1.5 6.5h.8v4h7.9l-1.3-5.5zm-1.2-11.4c-.1.6-.4 1.4-.6 2.1l1.7 1.7c.8-1.1 1.7-2.7 2.4-3.9h-3.5zm18.8 5.3h-4v3.5h4v-3.5zm0 12.7h-4v3.5h4v-3.5zm0 12.7h-4v3.7h4v-3.7zM132.3 52.2v-6.4h-37v6.6h-9.8V38.5h3.4v-22h.3c1.6 0 7.6-.1 12.9-1.6l3.8 7c-3.3 1.7-6.5 1.9-6.5 1.9v1.1h5.3v5.2h-5.3v1.6h5.1v2.4c1.7-.6 3.1-1.2 4.6-1.9-1.8-1.2-4.2-2.4-4.2-2.4l2.6-2.1-3.8-4.5c2-.6 3.5-1.2 4.7-1.9-2.3-1.7-3.6-2.4-3.6-2.4l6.1-3.6s1.8 1 3 2.2c1.4-1.3 2-2.5 2-2.5l6.4 2.2v-1.4h16.3v22.7h3.5v13.7h-9.8zm-11 12.4c-.2 8-1.2 9.6-16.4 9.6h-3.6l-3.7-7.9h4.1c8.3 0 8.7-.1 8.7-1.7H87.8v-7.8h22.8v-1.5h1.9c2-.2 3.9-.7 5-1.1H96.7v-6.8h34.1v6.2c-1.4 1.2-3.1 2.4-6.2 3.2h15.3v7.8h-18.6zm-16.9-29.8v2.1h-5.1v1.6h9.2l-4.1-3.7zm10.3 1.5c-.9.8-2 1.6-3.4 2.2h5.5c-.6-.7-1.3-1.5-2.1-2.2zm-1-11c-.7.6-1.4 1-2 1.4.9.4 1.7 1 2.5 1.6.6-.4.9-.8 1.2-1.2-.6-.8-1.2-1.4-1.7-1.8zm14.4 11.6h-4.8v-2l-5.7 3.7h10.5v-1.7zm0-13.7h-5.8v-4.8c-.7.9-1.6 1.9-2.8 3 1.7 1 3.3 2.3 3.3 2.3l-3.9 3.2 4.6 2v-4h4.8v-1.7zm0 6.9h-4.8v-.9c-.6.7-1.9 2-3.2 3 1.3.7 2.3 1.5 3.2 2.3v-2.8h4.8v-1.6zM214.4 73.4h-23.1c-12.2 0-18.8-1.5-24.5-8.6-.1 4.2-.7 9.7-.7 9.7l-7.8-6.5s1.6-7.6 1.6-23.5l7.6.9c0 2.2-.1 5.6-.1 7.6.5 1.2 1.1 2.7 1.7 3.7V42.8h-9.3v-9.9h9.3v-4.6h-8.4V19h8.4v-3.7h10.8V19h6.6v9.3h-6.6v4.6h8v9.9h-8v4.4h7.8v9.2h-7.8v5.7c3.1.8 6.6 1.4 10.8 1.4h.6l25.8-.4-2.7 10.3zm-8.8-12.2h-8.4c-6.1 0-7.6-1.5-7.6-7.9V32.7h14.9v-6.2H189v-9.2h25.3v24.6h-15v7.6c0 1.6.1 1.8 1.8 1.8h2.8c2.5 0 2.6-.1 2.6-3v-5.1l9.8 2.9c.2 12.9-1.2 15.1-10.7 15.1zM280.3 74.6c-2.7 0-5.5-1.3-8.2-4.2-6 3-10.3 4-10.3 4l-4.1-8.2s4-.4 9.3-2.5c-1-2-1.9-4.2-2.6-6.5h-8.8v1.2c5 0 8.2-.4 8.2-.4v6.5s-2.8.2-8.2.5c-.2 7.1-2.2 9.6-13.7 9.6h-3l-2.5-7h4.7c3.2 0 4.1-.3 4.1-2-3.1 0-6.9.3-10.8.3l-1.8-7c4.2 0 8.6-.1 12.6-.1v-1.7h-11.5v-6.6h11.5v-1.3c-3.6.1-7.9.1-7.9.1l-2-5.5h1.2c3.8 0 15.4-.1 20.7-1.7h-23.5v-6.6h22.5V34h-18.4v-6.1h18.4v-1.6h-21v-6.9h9.5c-.6-1-1.5-2.4-2.2-3.6l11.5-.4c.7 1.4 1.4 2.9 2.1 4h10.3c.8-1.1 1.5-2.5 2-3.9l11.7.6c-.5 1.2-1.1 2.3-1.8 3.4h9.3v6.9h-21V28h18.5v6h-18.5v1.6H289v6.6h-8.3c3.3 1.7 7.2 4.6 7.2 4.6l-4.7 3.8h5.8v6.6h-5.7l2.2 2.1c-1.4 2-3 3.7-4.6 5.2.2.2.4.2.7.2 1.1 0 2.8-1.9 4.7-4.4l4.5 7.5c-3.1 4.4-6.8 6.8-10.5 6.8zm-18.2-32.4h-3.6l3.3 5.3c-2.1.4-4.2.7-6.3 1v2h7.4c-.3-2.2-.8-5.6-.8-8.3zm11.3 4l4.7-4h-6c0 2.8.4 6.1.8 8.4h7c-1.6-1.3-3.6-2.6-6.5-4.4zm1.7 11c.2.7.6 1.9.9 2.5 1-.6 2.2-1.7 2.8-2.5h-3.7z"/><g><path class="st0" d="M154.8 106.4h-3.5l3.6-17.2h7.6c1.3 0 2.3.1 3 .4.7.3 1.3.8 1.8 1.5s.7 1.6.7 2.6c0 1.5-.4 2.7-1.3 3.6-.9 1-2.2 1.5-3.9 1.8.4.4.9.9 1.3 1.6.8 1.3 1.7 3.2 2.6 5.7h-3.8c-.3-1-.9-2.5-1.8-4.5-.5-1.1-1-1.9-1.5-2.2-.3-.2-.9-.3-1.7-.3h-1.4l-1.7 7zm2.1-9.7h1.9c1.9 0 3.1-.1 3.7-.3.6-.2 1.1-.6 1.4-1.1.3-.5.5-1 .5-1.5 0-.6-.3-1.1-.8-1.4-.3-.2-1-.3-2-.3h-3.9l-.8 4.6zM181.6 101.2h-8.4v.3c0 .8.2 1.5.7 2 .5.5 1 .8 1.7.8 1.1 0 2-.6 2.6-1.7l3 .5c-.6 1.2-1.4 2.1-2.3 2.7s-2.1.9-3.3.9c-1.7 0-3-.5-4-1.6s-1.6-2.5-1.6-4.2c0-1.7.5-3.2 1.4-4.6 1.3-1.8 3.1-2.7 5.5-2.7 1.5 0 2.7.5 3.6 1.4.9.9 1.3 2.3 1.3 4 .1.8 0 1.6-.2 2.2zm-2.8-2v-.3c0-.9-.2-1.6-.6-2.1-.4-.5-1-.7-1.6-.7s-1.3.3-1.9.8-.9 1.3-1.1 2.3h5.2zM190.2 106.4h-2.9l-2.5-12.5h3.3l.9 5.4c.2 1.5.4 2.4.4 2.9.1-.1.3-.6.8-1.5s.8-1.4.9-1.6l3.1-5.3h3.6l-7.6 12.6zM198.9 101.2c0-2.3.6-4.1 1.9-5.5s3-2.1 5.1-2.1c1.8 0 3.2.5 4.3 1.5 1 1 1.5 2.4 1.5 4.1 0 2-.6 3.8-1.9 5.2-1.3 1.5-3 2.2-5.1 2.2-1.2 0-2.2-.2-3.1-.7-.9-.5-1.6-1.1-2-2-.4-.8-.7-1.7-.7-2.7zm9.5-2.4c0-.8-.2-1.4-.7-1.9s-1.1-.7-1.8-.7-1.4.2-1.9.7c-.6.4-1 1.1-1.3 2-.3.9-.5 1.6-.5 2.4 0 .9.2 1.6.7 2.1.5.5 1.1.8 1.8.8.9 0 1.7-.4 2.3-1.2 1-1.2 1.4-2.6 1.4-4.2zM214.1 106.4l3.6-17.2h3.3l-3.6 17.2h-3.3zM224.5 93.9h3.3l-1.5 7.4c-.2.9-.3 1.4-.3 1.7 0 .4.1.7.4.9.3.3.6.4 1 .4.3 0 .6-.1.9-.2.3-.1.6-.3.9-.5s.6-.5.8-.8c.2-.3.5-.7.7-1.2.1-.4.3-.9.5-1.8l1.2-5.9h3.3l-2.6 12.5H230l.3-1.7c-1.4 1.3-2.8 2-4.4 2-1 0-1.8-.3-2.4-.9-.6-.6-.9-1.4-.9-2.4 0-.4.1-1.3.4-2.6l1.5-6.9zM238.5 96.4l.5-2.5h1.6l.4-2 3.8-2.3-.9 4.3h2l-.5 2.5h-2l-1.1 5.2c-.2.9-.3 1.5-.3 1.6 0 .3.1.5.2.6.2.1.5.2.9.2.1 0 .5 0 1.1-.1l-.5 2.5c-.6.1-1.2.2-1.8.2-1.2 0-2-.2-2.6-.7-.5-.5-.8-1.1-.8-1.9 0-.4.1-1.3.4-2.7l1-5h-1.4zM249.4 93.9h3.3l-2.6 12.5h-3.3l2.6-12.5zm.9-4.7h3.3l-.6 3h-3.3l.6-3zM255.1 101.2c0-2.3.6-4.1 1.9-5.5 1.3-1.4 3-2.1 5.1-2.1 1.8 0 3.2.5 4.3 1.5 1 1 1.5 2.4 1.5 4.1 0 2-.6 3.8-1.9 5.2-1.3 1.5-3 2.2-5.1 2.2-1.2 0-2.2-.2-3.1-.7-.9-.5-1.6-1.1-2-2-.5-.8-.7-1.7-.7-2.7zm9.5-2.4c0-.8-.2-1.4-.7-1.9s-1.1-.7-1.8-.7-1.4.2-1.9.7c-.6.4-1 1.1-1.3 2-.3.9-.5 1.6-.5 2.4 0 .9.2 1.6.7 2.1.5.5 1.1.8 1.8.8.9 0 1.7-.4 2.3-1.2.9-1.2 1.4-2.6 1.4-4.2zM272.9 93.9h3.2l-.3 1.6c.8-.7 1.5-1.2 2.2-1.5.7-.3 1.4-.4 2.2-.4 1 0 1.8.3 2.4.9.6.6.9 1.4.9 2.3 0 .4-.1 1.3-.4 2.5l-1.5 7h-3.3l1.5-7.1c.2-1.1.3-1.7.3-1.9 0-.4-.1-.8-.4-1-.3-.2-.6-.4-1.1-.4-.5 0-1 .2-1.6.6-.6.4-1.1 1-1.4 1.6-.2.5-.5 1.5-.8 3l-1.1 5.1h-3.3l2.5-12.3zM287.2 103.1h3.3l-.7 3.2h-3.3l.7-3.2zm2.7-1.1h-1.8l1-8.8.8-4h3.5l-.9 4.4-2.6 8.4z"/></g><g><path class="st0" d="M31.7 106.6h19.5l-9.7-18.8zM23.2 101.6l7.2-13.8h-17v4.5H21l-7.6 14.3h16.1l.1-5zM127.5 93.5c.1-4.1-3.2-5.3-6.8-5.3h-6.6v18.4h5.5v-8.4l4.1 8.4h4.7l-4.2-8.6c1.5-.5 3.3-2.7 3.3-4.5zm-6.8 1.2h-1.1v-2h1.2c.4 0 1.7-.1 1.7.9 0 .9-1.2 1.1-1.8 1.1zM65.9 94.3h-3.5c-.6-.2-.7-1.1.1-1.1h9.2v-5h-9.2c-3.7 0-5.5 2.4-5.5 5.4 0 3 1.9 6.1 5.5 6.1h3.4c.7 0 1 .3 1 .6 0 .4-.4.8-1.1.8h-8.7v5.6h8.8c4.3-.1 6.5-3.3 6.5-6.4 0-3.2-1-6-6.5-6zM84.4 94.7h-3.9V88h-6v18.6h6V100h3.9v6.6h6V88h-6zM92.6 106.6h19.3L102.3 88zM135.8 100h6.6v-5.3h-6.6v-1.3h6.6v-5.3h-11.9v18.5h11.9v-5.2h-6.6z"/></g></svg>